<svg width="27" height="31" viewBox="0 0 27 31" fill="none" xmlns="http://www.w3.org/2000/svg">
<path fill-rule="evenodd" clip-rule="evenodd" d="M27.0003 14.4455V21.9348C27.0003 26.5787 27.0003 28.9022 25.8994 29.9161C25.3744 30.4006 24.7114 30.7051 24.0049 30.7861C22.5245 30.9556 20.795 29.4257 17.3376 26.3672C15.8076 25.0158 15.0441 24.3393 14.1606 24.1623C13.7251 24.0734 13.2762 24.0734 12.8407 24.1623C11.9557 24.3393 11.1922 25.0158 9.66375 26.3672C6.20633 29.4257 4.47687 30.9556 2.99641 30.7846C2.28883 30.7032 1.62542 30.3991 1.10195 29.9161C0.000976473 28.9022 0.000976562 26.5802 0.000976562 21.9348V14.444C0.000976562 8.01366 0.000976384 4.79773 1.97793 2.79828C3.95488 0.798828 7.13781 0.798828 13.5007 0.798828C19.8635 0.798828 23.0464 0.798828 25.0234 2.79678C27.0003 4.79473 27.0003 8.01366 27.0003 14.4455ZM7.87579 6.79869C7.87579 6.50033 7.99432 6.21418 8.20529 6.00321C8.41626 5.79224 8.7024 5.67371 9.00077 5.67371H18.0006C18.2989 5.67371 18.5851 5.79224 18.796 6.00321C19.007 6.21418 19.1255 6.50033 19.1255 6.79869C19.1255 7.09705 19.007 7.38319 18.796 7.59416C18.5851 7.80514 18.2989 7.92366 18.0006 7.92366H9.00077C8.7024 7.92366 8.41626 7.80514 8.20529 7.59416C7.99432 7.38319 7.87579 7.09705 7.87579 6.79869Z" fill="#00A79B"/>
</svg>
