<svg width="38" height="34" viewBox="0 0 38 34" fill="none" xmlns="http://www.w3.org/2000/svg">
<path d="M15.8079 2.55624L15.4229 8.51836L15.385 9.30914L15.2143 9.3281C6.79832 10.3142 0.420898 17.49 0.420898 26.2777C0.420898 27.1449 0.485374 28.0027 0.614326 28.851C1.14341 32.3498 1.54164 32.6892 3.97466 29.7954C4.57793 29.0918 5.23751 28.4386 5.94686 27.8422C8.49365 25.7373 11.6607 24.5262 14.9621 24.3946L15.3907 24.3851L15.5063 26.7157L15.8211 31.1627C15.9729 32.6873 17.5772 33.7284 19.0525 32.8959C19.72 32.5204 20.3705 32.1184 21.0247 31.7202C24.4135 29.6001 27.5861 27.1633 30.6771 24.6316C32.4976 23.1146 34.0906 21.6771 35.4483 20.3686C36.0741 19.7561 36.6999 19.1436 37.3049 18.5102C38.181 17.5924 38.2682 16.0734 37.3504 15.112C35.2379 12.9027 32.253 10.1359 28.5381 7.2004C25.5267 4.84514 22.4128 2.64537 19.1132 0.712993C17.526 -0.191565 15.952 1.04865 15.8079 2.55624Z" fill="#00A79B"/>
</svg>