<svg width="40" height="40" viewBox="0 0 40 40" fill="none" xmlns="http://www.w3.org/2000/svg">
<path d="M26.4276 2.27051H13.9385C7.57157 2.27051 2.41016 7.43193 2.41016 13.7989V26.2879C2.41016 32.6548 7.57157 37.8163 13.9385 37.8163H26.4276C32.7945 37.8163 37.9559 32.6548 37.9559 26.2879V13.7989C37.9559 7.43193 32.7945 2.27051 26.4276 2.27051Z" stroke="#00A79B" stroke-width="2.88209"/>
<path d="M31.2288 13.9039H28.4678M28.4678 13.9039C28.4678 14.8196 28.104 15.6979 27.4565 16.3454C26.809 16.9929 25.9308 17.3567 25.015 17.3567C24.0993 17.3567 23.2211 16.9929 22.5736 16.3454C21.9261 15.6979 21.5623 14.8196 21.5623 13.9039M28.4678 13.9039C28.4678 12.9882 28.104 12.11 27.4565 11.4625C26.809 10.8149 25.9308 10.4512 25.015 10.4512C24.0993 10.4512 23.2211 10.8149 22.5736 11.4625C21.9261 12.11 21.5623 12.9882 21.5623 13.9039M21.5623 13.9039H9.13281M31.2288 26.1816H18.7993M18.7993 26.1816C18.7993 26.635 18.71 27.084 18.5365 27.5029C18.363 27.9218 18.1087 28.3024 17.7881 28.6231C17.4674 28.9437 17.0868 29.198 16.6679 29.3715C16.249 29.545 15.8 29.6343 15.3466 29.6343C14.4309 29.6343 13.5527 29.2706 12.9051 28.6231C12.2576 27.9755 11.8958 27.0973 11.8958 26.1816M18.7993 26.1816C18.7993 25.7282 18.71 25.2792 18.5365 24.8603C18.363 24.4414 18.1087 24.0608 17.7881 23.7401C17.4674 23.4195 17.0868 23.1652 16.6679 22.9917C16.249 22.8182 15.8 22.7289 15.3466 22.7289C14.4309 22.7289 13.5527 23.0926 12.9051 23.7401C12.2576 24.3877 11.8958 25.2659 11.8958 26.1816M11.8958 26.1816H9.13281" stroke="#00A79B" stroke-width="2.88209" stroke-linecap="round" stroke-linejoin="round"/>
</svg>
