<svg width="27" height="31" viewBox="0 0 27 31" fill="none" xmlns="http://www.w3.org/2000/svg">
<path fill-rule="evenodd" clip-rule="evenodd" d="M27.0003 14.1901V21.6795C27.0003 26.3234 27.0003 28.6468 25.8994 29.6608C25.3744 30.1453 24.7114 30.4498 24.0049 30.5308C22.5245 30.7003 20.795 29.1703 17.3376 26.1119C15.8076 24.7604 15.0441 24.0839 14.1606 23.9069C13.7251 23.818 13.2762 23.818 12.8407 23.9069C11.9557 24.0839 11.1922 24.7604 9.66375 26.1119C6.20633 29.1703 4.47687 30.7003 2.99641 30.5293C2.28883 30.4479 1.62542 30.1437 1.10195 29.6608C0.000976473 28.6468 0.000976562 26.3249 0.000976562 21.6795V14.1886C0.000976562 7.75829 0.000976384 4.54236 1.97793 2.54291C3.95488 0.543457 7.13781 0.543457 13.5007 0.543457C19.8635 0.543457 23.0464 0.543457 25.0234 2.54141C27.0003 4.53936 27.0003 7.75829 27.0003 14.1901ZM7.87579 6.54332C7.87579 6.24496 7.99432 5.95881 8.20529 5.74784C8.41626 5.53687 8.7024 5.41834 9.00077 5.41834H18.0006C18.2989 5.41834 18.5851 5.53687 18.796 5.74784C19.007 5.95881 19.1255 6.24496 19.1255 6.54332C19.1255 6.84168 19.007 7.12782 18.796 7.33879C18.5851 7.54977 18.2989 7.66829 18.0006 7.66829H9.00077C8.7024 7.66829 8.41626 7.54977 8.20529 7.33879C7.99432 7.12782 7.87579 6.84168 7.87579 6.54332Z" fill="#00A79B"/>
</svg>
