<svg width="129" height="150" viewBox="0 0 129 150" fill="none" xmlns="http://www.w3.org/2000/svg">
<path d="M119.716 15.5643L32.4928 0.162188C29.6947 -0.330206 26.8156 0.308873 24.4886 1.93889C22.1616 3.5689 20.5773 6.05639 20.084 8.85433L0.161741 122.026C-0.0819272 123.413 -0.0500057 124.834 0.255682 126.208C0.561369 127.582 1.13483 128.882 1.94329 130.035C2.75176 131.187 3.77938 132.169 4.96743 132.924C6.15548 133.679 7.48067 134.192 8.86728 134.435L96.09 149.837C97.477 150.082 98.8985 150.051 100.273 149.745C101.648 149.44 102.949 148.867 104.103 148.058C105.256 147.25 106.238 146.222 106.994 145.033C107.749 143.845 108.263 142.519 108.505 141.132L128.428 27.9596C128.916 25.1606 128.272 22.2824 126.638 19.9579C125.005 17.6334 122.514 16.053 119.716 15.5643ZM69.3038 77.3803C69.0851 78.6196 68.4371 79.7424 67.4735 80.5517C66.5098 81.3611 65.292 81.8054 64.0336 81.8067C63.7194 81.8065 63.4057 81.7796 63.0961 81.7264L35.3053 76.8178C33.9846 76.4929 32.8368 75.6779 32.0949 74.5379C31.3529 73.398 31.0724 72.0186 31.31 70.6794C31.5477 69.3402 32.2859 68.1416 33.3748 67.3266C34.4637 66.5116 35.8218 66.1413 37.1736 66.2908L64.951 71.1726C65.6446 71.2939 66.3076 71.5508 66.9018 71.9285C67.4961 72.3063 68.0101 72.7975 68.4143 73.374C68.8186 73.9506 69.1053 74.6012 69.2579 75.2886C69.4105 75.976 69.4261 76.6868 69.3038 77.3803ZM100.778 61.188C100.559 62.4262 99.9122 63.5481 98.9499 64.3573C97.9877 65.1665 96.7714 65.6115 95.5141 65.6144C95.1974 65.6148 94.8812 65.5857 94.5699 65.5274L38.9884 55.7169C37.5889 55.4691 36.3451 54.6756 35.5307 53.5108C34.7163 52.346 34.3979 50.9053 34.6457 49.5058C34.8935 48.1063 35.687 46.8625 36.8518 46.0481C38.0166 45.2337 39.4572 44.9153 40.8568 45.1631L96.4383 54.9803C97.1325 55.1008 97.7961 55.3571 98.3912 55.7346C98.9862 56.112 99.5009 56.6031 99.9059 57.1797C100.311 57.7563 100.598 58.4072 100.751 59.095C100.904 59.7828 100.92 60.494 100.798 61.188H100.778ZM104.494 40.0804C104.276 41.3197 103.628 42.4425 102.664 43.2519C101.7 44.0612 100.482 44.5055 99.224 44.5068C98.9098 44.5063 98.5962 44.4794 98.2865 44.4265L42.705 34.6093C41.9962 34.505 41.3156 34.2596 40.7033 33.8876C40.0911 33.5156 39.5596 33.0246 39.1405 32.4436C38.7213 31.8626 38.4229 31.2034 38.263 30.5051C38.1031 29.8068 38.0848 29.0835 38.2094 28.378C38.3339 27.6725 38.5987 26.9991 38.988 26.3977C39.3773 25.7963 39.8833 25.2791 40.4761 24.8768C41.0688 24.4744 41.7362 24.195 42.4388 24.0551C43.1415 23.9152 43.865 23.9176 44.5667 24.0622L100.148 33.8727C100.843 33.9925 101.507 34.2482 102.103 34.6253C102.699 35.0024 103.214 35.4934 103.62 36.0701C104.026 36.6468 104.313 37.2979 104.467 37.9861C104.62 38.6743 104.636 39.386 104.514 40.0804H104.494Z" fill="#00A79B"/>
</svg>
