<svg width="149" height="150" viewBox="0 0 149 150" fill="none" xmlns="http://www.w3.org/2000/svg">
<path d="M142.321 137.483H118.1C117.855 137.494 117.612 137.442 117.393 137.332C117.174 137.223 116.986 137.059 116.848 136.857C116.744 136.654 116.689 136.428 116.689 136.2C116.689 135.971 116.744 135.746 116.848 135.543L125.109 104.25C125.332 103.396 125.345 102.501 125.149 101.64C124.953 100.78 124.553 99.9789 123.983 99.3053C123.388 98.5907 122.641 98.0176 121.796 97.6279C120.952 97.2381 120.031 97.0415 119.101 97.0522H29.6658C28.7358 97.0415 27.8151 97.2381 26.9706 97.6279C26.1262 98.0176 25.3792 98.5907 24.7841 99.3053C24.2139 99.9789 23.8139 100.78 23.6179 101.64C23.4218 102.501 23.4354 103.396 23.6575 104.25L31.9189 135.543C32.0232 135.746 32.0776 135.971 32.0776 136.2C32.0776 136.428 32.0232 136.654 31.9189 136.857C31.7652 137.089 31.5474 137.272 31.2919 137.383C31.0364 137.494 30.7542 137.529 30.4794 137.483H6.2586C4.59872 137.483 3.00682 138.142 1.8331 139.316C0.659386 140.49 0 142.082 0 143.741C0 145.401 0.659386 146.993 1.8331 148.167C3.00682 149.341 4.59872 150 6.2586 150H142.321C143.98 150 145.572 149.341 146.746 148.167C147.92 146.993 148.579 145.401 148.579 143.741C148.579 142.082 147.92 140.49 146.746 139.316C145.572 138.142 143.98 137.483 142.321 137.483ZM74.2896 112.448C75.8271 112.436 77.3337 112.881 78.6181 113.726C79.9025 114.571 80.907 115.779 81.504 117.196C82.101 118.613 82.2636 120.175 81.9713 121.684C81.6789 123.194 80.9448 124.583 79.862 125.674C78.7791 126.766 77.3965 127.511 75.8894 127.816C74.3823 128.12 72.8187 127.97 71.3969 127.385C69.9752 126.799 68.7594 125.805 67.9039 124.527C67.0483 123.25 66.5916 121.747 66.5915 120.209C66.5832 119.193 66.7763 118.185 67.1594 117.244C67.5426 116.303 68.1083 115.447 68.824 114.725C69.5396 114.004 70.3911 113.431 71.3291 113.04C72.2672 112.65 73.2734 112.448 74.2896 112.448ZM38.4904 84.7228C38.5227 85.5309 38.8667 86.295 39.45 86.8551C40.0334 87.4151 40.811 87.7276 41.6197 87.7269H106.959C107.779 87.7271 108.565 87.406 109.15 86.8326C109.735 86.2592 110.072 85.4793 110.089 84.6602C110.087 77.9629 108.211 71.3998 104.671 65.7143C101.131 60.0288 96.0704 55.4481 90.0613 52.491C89.8265 52.3611 89.6308 52.1707 89.4945 51.9396C89.3582 51.7084 89.2864 51.445 89.2864 51.1767C89.2864 50.9084 89.3582 50.645 89.4945 50.4138C89.6308 50.1827 89.8265 49.9923 90.0613 49.8624C94.8079 46.4852 98.3584 41.6867 100.2 36.1599C102.041 30.633 102.078 24.664 100.305 19.1147C98.5328 13.5655 95.0422 8.72328 90.3378 5.28745C85.6334 1.85162 79.9586 0 74.1331 0C68.3076 0 62.6329 1.85162 57.9285 5.28745C53.224 8.72328 49.7334 13.5655 47.9608 19.1147C46.1881 24.664 46.2252 30.633 48.0665 36.1599C49.9079 41.6867 53.4583 46.4852 58.205 49.8624C58.4255 50.0307 58.6029 50.249 58.7225 50.4992C58.8422 50.7495 58.9008 51.0246 58.8934 51.3019C58.861 51.5663 58.7641 51.8187 58.6114 52.037C58.4586 52.2552 58.2546 52.4326 58.0172 52.5536C52.1062 55.5858 47.1518 60.1978 43.7046 65.8768C40.2574 71.5558 38.4525 78.0795 38.4904 84.7228ZM74.2896 60.3143C75.5179 60.3143 76.6959 60.8022 77.5645 61.6707C78.433 62.5393 78.9209 63.7173 78.9209 64.9456V72.5811C78.9209 73.8094 78.433 74.9874 77.5645 75.856C76.6959 76.7245 75.5179 77.2125 74.2896 77.2125C73.0613 77.2125 71.8833 76.7245 71.0147 75.856C70.1462 74.9874 69.6582 73.8094 69.6582 72.5811V64.9456C69.6582 63.7173 70.1462 62.5393 71.0147 61.6707C71.8833 60.8022 73.0613 60.3143 74.2896 60.3143ZM59.5819 22.7627C59.6622 22.5379 59.7949 22.3355 59.9691 22.1722C60.1432 22.0089 60.3538 21.8895 60.5833 21.8239C60.785 21.7143 61.0109 21.6569 61.2404 21.6569C61.4699 21.6569 61.6958 21.7143 61.8976 21.8239C67.4871 25.4619 74.0043 27.4171 80.6734 27.4566C83.0492 27.4306 85.4172 27.1791 87.7456 26.7056C87.8425 26.6561 87.9497 26.6303 88.0585 26.6303C88.1673 26.6303 88.2745 26.6561 88.3714 26.7056C88.4638 26.7828 88.5392 26.8782 88.5931 26.9859C88.6469 27.0936 88.678 27.2112 88.6844 27.3314C88.6942 29.5246 88.2256 31.6935 87.3112 33.687C86.3969 35.6805 85.0588 37.4506 83.3903 38.874C81.7217 40.2973 79.7629 41.3397 77.6502 41.9284C75.5375 42.5172 73.3219 42.6381 71.1577 42.2828C68.9935 41.9274 66.9328 41.1044 65.1192 39.8711C63.3057 38.6378 61.783 37.0238 60.6571 35.1416C59.5313 33.2595 58.8294 31.1545 58.6005 28.9733C58.3715 26.7921 58.621 24.5872 59.3315 22.5123L59.5819 22.7627Z" fill="#00A79B"/>
</svg>
