<svg width="129" height="150" viewBox="0 0 129 150" fill="none" xmlns="http://www.w3.org/2000/svg">
<path d="M26.7865 48.2115C26.7865 38.2656 30.7374 28.727 37.7703 21.6942C44.8031 14.6614 54.3416 10.7104 64.2875 10.7104C74.2334 10.7104 83.7719 14.6614 90.8047 21.6942C97.8375 28.727 101.789 38.2656 101.789 48.2115C101.789 49.6323 102.353 50.995 103.358 51.9996C104.362 53.0043 105.725 53.5688 107.146 53.5688C108.567 53.5688 109.929 53.0043 110.934 51.9996C111.939 50.995 112.503 49.6323 112.503 48.2115C112.502 39.9887 110.399 31.9028 106.392 24.7222C102.386 17.5416 96.6092 11.505 89.6119 7.18615C82.6147 2.86729 74.6292 0.409689 66.4145 0.046946C58.1998 -0.315797 50.0287 1.42837 42.6781 5.11366C35.3274 8.79896 29.0414 14.3029 24.4175 21.1024C19.7936 27.9019 16.9854 35.7709 16.2599 43.9616C15.5344 52.1523 16.9157 60.3924 20.2725 67.8988C23.6293 75.4051 28.85 81.9283 35.4385 86.8483C41.0882 91.0686 47.5948 93.9982 54.4997 95.4306C55.4589 97.5821 57.1003 99.3575 59.17 100.482C61.2397 101.607 63.6224 102.018 65.9494 101.652C68.2764 101.287 70.418 100.164 72.043 98.4589C73.6679 96.7535 74.6855 94.5602 74.9384 92.2182C75.1914 89.8763 74.6655 87.5163 73.4422 85.5033C72.2188 83.4903 70.3662 81.9365 68.171 81.0824C65.9757 80.2282 63.5602 80.1213 61.2981 80.7782C59.0359 81.435 57.0533 82.819 55.6569 84.716C47.4366 82.772 40.1134 78.1097 34.8736 71.4843C29.6337 64.8589 26.7842 56.6585 26.7865 48.2115ZM32.1437 48.2115C32.1458 42.298 33.7792 36.4998 36.864 31.4548C39.9488 26.4097 44.3655 22.3134 49.6282 19.6165C54.8909 16.9197 60.7955 15.7268 66.6923 16.1693C72.5892 16.6117 78.2497 18.6722 83.0511 22.1241C87.8524 25.576 91.6085 30.2855 93.906 35.7343C96.2035 41.1832 96.9534 47.1603 96.0731 53.0078C95.1928 58.8553 92.7165 64.3467 88.9167 68.8777C85.1169 73.4087 80.1408 76.8037 74.536 78.6891C71.6536 76.3032 68.0292 74.9978 64.2875 74.9979C60.3927 74.9979 56.8248 76.3855 54.039 78.6891C47.6571 76.5423 42.1105 72.4456 38.182 66.9772C34.2535 61.5088 32.1413 54.9448 32.1437 48.2115ZM64.2875 107.142C66.8594 107.143 69.3941 106.527 71.6786 105.346C73.9631 104.164 75.9307 102.452 77.4161 100.352C78.9016 98.2528 79.8614 95.8274 80.2151 93.2799C80.5688 90.7325 80.3059 88.1373 79.4486 85.7125H109.824C114.797 85.7125 119.567 87.688 123.083 91.2044C126.599 94.7208 128.575 99.4901 128.575 104.463V107.142C128.575 119.962 120.416 130.805 108.833 138.176C97.1866 145.591 81.4201 150 64.2875 150C47.1549 150 31.3937 145.591 19.7416 138.176C8.15915 130.805 0 119.962 0 107.142V104.463C0 99.4901 1.9755 94.7208 5.4919 91.2044C9.0083 87.688 13.7776 85.7125 18.7505 85.7125H26.0311C32.8828 92.7085 41.5209 97.6928 51.0068 100.124C53.8997 104.361 58.7748 107.142 64.2875 107.142Z" fill="#00A79B"/>
</svg>
