<svg width="177" height="150" viewBox="0 0 177 150" fill="none" xmlns="http://www.w3.org/2000/svg">
<path fill-rule="evenodd" clip-rule="evenodd" d="M61.4291 136.491C35.4616 116.594 0 83.7269 0 52.6506C0 0.733213 48.5291 -18.652 88.2348 21.4419C127.94 -18.652 176.47 0.733213 176.47 52.6506C176.47 83.7269 140.999 116.594 115.041 136.491C103.288 145.491 97.4112 150 88.2348 150C79.0584 150 73.1819 145.5 61.4291 136.491ZM127.94 28.6772C129.696 28.6772 131.379 29.3744 132.62 30.6154C133.861 31.8565 134.558 33.5397 134.558 35.2948V46.3241H145.587C147.342 46.3241 149.026 47.0213 150.267 48.2624C151.508 49.5034 152.205 51.1866 152.205 52.9417C152.205 54.6968 151.508 56.38 150.267 57.6211C149.026 58.8621 147.342 59.5593 145.587 59.5593H134.558V70.5887C134.558 72.3438 133.861 74.027 132.62 75.268C131.379 76.5091 129.696 77.2063 127.94 77.2063C126.185 77.2063 124.502 76.5091 123.261 75.268C122.02 74.027 121.323 72.3438 121.323 70.5887V59.5593H110.293C108.538 59.5593 106.855 58.8621 105.614 57.6211C104.373 56.38 103.676 54.6968 103.676 52.9417C103.676 51.1866 104.373 49.5034 105.614 48.2624C106.855 47.0213 108.538 46.3241 110.293 46.3241H121.323V35.2948C121.323 33.5397 122.02 31.8565 123.261 30.6154C124.502 29.3744 126.185 28.6772 127.94 28.6772Z" fill="#00A79B"/>
</svg>
