<svg width="150" height="150" viewBox="0 0 150 150" fill="none" xmlns="http://www.w3.org/2000/svg">
<path fill-rule="evenodd" clip-rule="evenodd" d="M5.13249e-06 47.3387C0.0121033 40.5103 1.50095 33.765 4.36473 27.5641C7.22852 21.3632 11.3997 15.8529 16.593 11.4102C21.7864 6.96736 27.8794 3.69681 34.4554 1.82215C41.0314 -0.0525119 47.9353 -0.48707 54.695 0.548192C61.4548 1.58345 67.9109 4.06412 73.6218 7.82055C79.3328 11.577 84.164 16.5206 87.785 22.3133C91.406 28.106 93.7314 34.6112 94.6022 41.3841C95.473 48.1569 94.8687 55.0377 92.8306 61.5558C85.8512 61.7622 79.2271 64.6756 74.3635 69.6779C69.5 74.6802 66.7797 81.3778 66.78 88.3496V90.6977C59.5473 93.9066 51.626 95.2599 43.7362 94.6346C35.8465 94.0093 28.2383 91.4251 21.6031 87.1171C14.968 82.809 9.51623 76.9135 5.74342 69.9666C1.97061 63.0196 -0.00367392 55.2413 5.13249e-06 47.3387ZM47.4944 12.6215C51.2098 12.6215 54.2057 15.6236 54.2057 19.3226V22.3569C56.8445 22.9636 59.2876 24.2248 61.309 26.0238C63.3303 27.8229 64.8649 30.1018 65.7706 32.6498C66.0647 33.4798 66.1921 34.3595 66.1456 35.2387C66.0991 36.1179 65.8796 36.9793 65.4997 37.7738C65.1198 38.5683 64.5869 39.2803 63.9314 39.8692C63.2759 40.4581 62.5107 40.9122 61.6794 41.2058C60.8482 41.4994 59.9671 41.6266 59.0866 41.5802C58.2061 41.5338 57.3433 41.3146 56.5476 40.9353C55.7519 40.556 55.0388 40.0239 54.4491 39.3694C53.8593 38.7149 53.4045 37.9508 53.1105 37.1208C52.923 36.6099 52.5843 36.168 52.1393 35.8539C51.6943 35.5398 51.1641 35.3684 50.6192 35.3624H43.371C42.9703 35.3694 42.5858 35.5224 42.2902 35.7926C41.9945 36.0629 41.808 36.4317 41.7658 36.8298C41.7236 37.2278 41.8285 37.6274 42.0609 37.9536C42.2932 38.2797 42.637 38.5097 43.0274 38.6004L54.0554 41.0021C57.6206 41.7848 60.8129 43.7559 63.107 46.591C65.4012 49.4261 66.6606 52.9564 66.6781 56.6012C66.6956 60.2461 65.4701 63.7883 63.2033 66.6452C60.9365 69.5022 57.7633 71.5037 54.2057 72.3205V75.3655C54.2057 77.1427 53.4987 78.8472 52.24 80.1039C50.9814 81.3606 49.2744 82.0666 47.4944 82.0666C45.7145 82.0666 44.0075 81.3606 42.7489 80.1039C41.4902 78.8472 40.7832 77.1427 40.7832 75.3655V72.3312C38.1463 71.7229 35.7055 70.461 33.6861 68.662C31.6667 66.863 30.1338 64.585 29.229 62.0383C28.6352 60.362 28.7327 58.5188 29.4999 56.9142C30.2672 55.3097 31.6414 54.0752 33.3202 53.4823C34.9991 52.8894 36.845 52.9867 38.452 53.7528C40.059 54.5189 41.2954 55.891 41.8892 57.5673C42.0766 58.0782 42.4153 58.5201 42.8603 58.8342C43.3053 59.1483 43.8355 59.3197 44.3804 59.3257H50.6192C51.2625 59.3098 51.878 59.0611 52.3512 58.6258C52.8244 58.1904 53.123 57.5982 53.1913 56.9594C53.2596 56.3205 53.093 55.6787 52.7225 55.1534C52.3521 54.6281 51.803 54.2552 51.1776 54.1041L40.1604 51.6917C36.7477 50.949 33.6996 49.0455 31.5373 46.3067C29.375 43.5678 28.233 40.1639 28.3066 36.6772C28.3801 33.1906 29.6647 29.8377 31.9406 27.1923C34.2165 24.5468 37.3422 22.7731 40.7832 22.1746V19.3226C40.7832 15.6128 43.7898 12.6215 47.4944 12.6215ZM80.2026 88.3496V150H150V139.278C150 133.591 147.737 128.137 143.71 124.115C139.682 120.094 134.22 117.835 128.524 117.835H107.048V88.3496C107.048 84.7951 105.634 81.3862 103.116 78.8728C100.599 76.3594 97.1851 74.9473 93.6252 74.9473C90.0653 74.9473 86.6512 76.3594 84.134 78.8728C81.6167 81.3862 80.2026 84.7951 80.2026 88.3496Z" fill="#00A79B"/>
</svg>
