<svg width="158" height="150" viewBox="0 0 158 150" fill="none" xmlns="http://www.w3.org/2000/svg">
<path d="M116.25 67.5C127.19 67.5 137.682 71.846 145.418 79.5818C153.154 87.3177 157.5 97.8098 157.5 108.75C157.5 119.69 153.154 130.182 145.418 137.918C137.682 145.654 127.19 150 116.25 150C105.31 150 94.8177 145.654 87.0818 137.918C79.346 130.182 75 119.69 75 108.75C75 97.8098 79.346 87.3177 87.0818 79.5818C94.8177 71.846 105.31 67.5 116.25 67.5ZM116.25 82.5L115.575 82.5525C114.826 82.6894 114.136 83.0512 113.597 83.5898C113.059 84.1284 112.697 84.8182 112.56 85.5675L112.5 86.25V105H93.735L93.06 105.06C92.3107 105.197 91.6209 105.559 91.0823 106.097C90.5437 106.636 90.1819 107.326 90.045 108.075L89.985 108.75L90.045 109.425C90.1819 110.174 90.5437 110.864 91.0823 111.403C91.6209 111.941 92.3107 112.303 93.06 112.44L93.735 112.5H112.5V131.273L112.56 131.948C112.697 132.697 113.059 133.387 113.597 133.925C114.136 134.464 114.826 134.826 115.575 134.963L116.25 135.023L116.925 134.963C117.674 134.826 118.364 134.464 118.903 133.925C119.441 133.387 119.803 132.697 119.94 131.948L120 131.273V112.5L138.78 112.507L139.455 112.448C140.204 112.311 140.894 111.949 141.433 111.41C141.971 110.872 142.333 110.182 142.47 109.432L142.53 108.757L142.47 108.082C142.333 107.332 141.97 106.642 141.43 106.103C140.89 105.564 140.198 105.203 139.448 105.068L138.773 105.007H120V86.2575L119.94 85.5825C119.804 84.8318 119.443 84.1404 118.905 83.6003C118.366 83.0603 117.675 82.6974 116.925 82.56L116.25 82.5ZM91.905 52.5C94.874 52.5006 97.7902 53.2844 100.359 54.7725C102.929 56.2605 105.06 58.4 106.537 60.975C98.7826 62.5553 91.5289 65.9992 85.4026 71.0096C79.2762 76.0199 74.4614 82.446 71.3738 89.7332C68.2862 97.0203 67.0186 104.949 67.6804 112.836C68.3422 120.722 70.9136 128.329 75.1725 135L75.0225 134.993C70.5891 134.993 66.199 134.121 62.1029 132.425C58.0068 130.729 54.285 128.242 51.1501 125.107C48.0153 121.972 45.5288 118.251 43.8326 114.155C42.1365 110.059 41.264 105.668 41.265 101.235V69.375C41.265 64.8995 43.0429 60.6073 46.2076 57.4426C49.3722 54.2779 53.6645 52.5 58.14 52.5H91.905ZM40.545 52.5C36.5736 56.6325 34.1908 62.0357 33.8175 67.755L33.765 69.375V101.243C33.765 107.595 35.1975 113.61 37.7625 118.98C35.2825 119.655 32.695 119.995 30 120C26.0597 120 22.158 119.224 18.5178 117.716C14.8775 116.208 11.57 113.997 8.78415 111.211C5.99829 108.424 3.78866 105.116 2.28146 101.475C0.774263 97.8347 -0.000984134 93.9328 9.37585e-07 89.9925V69.375C-0.000524354 65.0991 1.62222 60.9823 4.54027 57.8568C7.45832 54.7314 11.4541 52.8302 15.72 52.5375L16.875 52.5H40.545ZM133.125 52.5C137.601 52.5 141.893 54.2779 145.057 57.4426C148.222 60.6073 150 64.8995 150 69.375V73.575C140.932 64.8515 128.833 59.9852 116.25 60L114.427 60.0375C113.257 57.2442 111.585 54.6894 109.493 52.5H133.125ZM123.75 7.5C128.723 7.5 133.492 9.47544 137.008 12.9917C140.525 16.5081 142.5 21.2772 142.5 26.25C142.5 31.2228 140.525 35.9919 137.008 39.5083C133.492 43.0246 128.723 45 123.75 45C118.777 45 114.008 43.0246 110.492 39.5083C106.975 35.9919 105 31.2228 105 26.25C105 21.2772 106.975 16.5081 110.492 12.9917C114.008 9.47544 118.777 7.5 123.75 7.5ZM75 0C80.9674 0 86.6903 2.37053 90.9099 6.5901C95.1295 10.8097 97.5 16.5326 97.5 22.5C97.5 28.4674 95.1295 34.1903 90.9099 38.4099C86.6903 42.6295 80.9674 45 75 45C69.0326 45 63.3097 42.6295 59.0901 38.4099C54.8705 34.1903 52.5 28.4674 52.5 22.5C52.5 16.5326 54.8705 10.8097 59.0901 6.5901C63.3097 2.37053 69.0326 0 75 0ZM26.25 7.5C31.2228 7.5 35.9919 9.47544 39.5083 12.9917C43.0246 16.5081 45 21.2772 45 26.25C45 31.2228 43.0246 35.9919 39.5083 39.5083C35.9919 43.0246 31.2228 45 26.25 45C21.2772 45 16.5081 43.0246 12.9917 39.5083C9.47544 35.9919 7.5 31.2228 7.5 26.25C7.5 21.2772 9.47544 16.5081 12.9917 12.9917C16.5081 9.47544 21.2772 7.5 26.25 7.5Z" fill="#00A79B"/>
</svg>
